<?xml version="1.0" encoding="utf-8"?>
<!-- Generator: Adobe Illustrator 22.0.0, SVG Export Plug-In . SVG Version: 6.00 Build 0)  -->
<svg version="1.1" id="Capa_1" xmlns="http://www.w3.org/2000/svg" xmlns:xlink="http://www.w3.org/1999/xlink" x="0px" y="0px"
	 viewBox="0 0 1164 780" style="enable-background:new 0 0 1164 780;" xml:space="preserve">
<style type="text/css">
	.st0{fill:#5E5E5E;}
	.st1{fill-rule:evenodd;clip-rule:evenodd;fill:#5E5E5E;}
	.st2{fill-rule:evenodd;clip-rule:evenodd;fill:none;stroke:#5E5E5E;stroke-width:30;stroke-miterlimit:10;}
</style>
<g>
	<g>
		<path class="st0" d="M50.3,524.2h8.6l0.8,3.5h0.3c2.8-2.5,6.4-4.4,10.2-4.4c8.6,0,13.9,7.1,13.9,18.2c0,12.3-7.3,19.3-15,19.3
			c-3.1,0-6-1.3-8.5-3.7l0.4,5.7v10.5H50.3V524.2z M73.2,541.6c0-6.4-2-9.6-6.2-9.6c-2.2,0-4,1-6.1,3.2v14.7
			c1.9,1.7,3.9,2.3,5.7,2.3C70.3,552.1,73.2,549,73.2,541.6z"/>
		<path class="st0" d="M91.5,548.8v-39.3h10.6v39.8c0,2.3,1.1,3,1.9,3c0.4,0,0.7,0,1.3-0.1l1.3,7.8c-1.2,0.5-2.9,0.9-5.3,0.9
			C94,560.8,91.5,556.1,91.5,548.8z"/>
		<path class="st0" d="M110.1,542.1c0-11.6,8.3-18.7,16.9-18.7c10.2,0,15.2,7.4,15.2,17.1c0,1.9-0.2,3.8-0.4,4.7h-21.4
			c1,5.2,4.5,7.6,9.3,7.6c2.7,0,5.1-0.8,7.7-2.3l3.5,6.4c-3.7,2.5-8.4,4-12.7,4C117.9,560.8,110.1,553.9,110.1,542.1z M133.1,538.2
			c0-3.9-1.7-6.8-5.9-6.8c-3.3,0-6.2,2.2-7,6.8H133.1z"/>
		<path class="st0" d="M147.7,550c0-7.5,6-11.6,20.1-13.1c-0.2-3.1-1.8-5.2-5.6-5.2c-3,0-6,1.3-9.5,3.2l-3.8-6.9
			c4.5-2.8,9.6-4.7,15.3-4.7c9.1,0,14.2,5.2,14.2,16.2v20.4h-8.6l-0.8-3.7h-0.3c-3,2.6-6.4,4.5-10.4,4.5
			C151.9,560.8,147.7,556.1,147.7,550z M167.9,549.6v-6.2c-7.5,1-10,3.2-10,5.9c0,2.3,1.6,3.4,4.1,3.4
			C164.4,552.6,166,551.4,167.9,549.6z"/>
		<path class="st0" d="M184.2,555.8l4.8-6.6c3.2,2.4,6.2,3.8,9.2,3.8c3.1,0,4.5-1.2,4.5-3.1c0-2.4-3.5-3.4-7.2-4.9
			c-4.4-1.7-9.5-4.6-9.5-10.5c0-6.7,5.4-11.2,13.6-11.2c5.5,0,9.5,2.2,12.6,4.5l-4.7,6.4c-2.5-1.8-5-3-7.5-3c-2.7,0-4.1,1.1-4.1,2.9
			c0,2.3,3.3,3.2,7,4.5c4.5,1.7,9.6,4.2,9.6,10.8c0,6.5-5.1,11.5-14.7,11.5C193.2,560.8,187.8,558.8,184.2,555.8z"/>
		<path class="st0" d="M217.2,542.1c0-11.6,8.3-18.7,16.9-18.7c10.2,0,15.2,7.4,15.2,17.1c0,1.9-0.2,3.8-0.4,4.7h-21.4
			c0.9,5.2,4.5,7.6,9.3,7.6c2.7,0,5.1-0.8,7.7-2.3l3.5,6.4c-3.7,2.5-8.4,4-12.7,4C225,560.8,217.2,553.9,217.2,542.1z M240.2,538.2
			c0-3.9-1.7-6.8-5.9-6.8c-3.3,0-6.2,2.2-7,6.8H240.2z"/>
		<path class="st0" d="M268.8,542.1c0-11.9,8.7-18.7,18.6-18.7c4.4,0,7.8,1.6,10.4,3.8l-5,6.8c-1.7-1.4-3.1-2.1-4.8-2.1
			c-5.1,0-8.4,4-8.4,10.2s3.4,10.2,8,10.2c2.3,0,4.6-1.2,6.4-2.6l4.1,6.9c-3.5,3.1-7.9,4.3-11.8,4.3
			C276.5,560.8,268.8,553.9,268.8,542.1z"/>
		<path class="st0" d="M304.6,524.2h8.6l0.8,6.2h0.3c2.6-4.8,6.5-7.1,10.1-7.1c2,0,3.2,0.3,4.3,0.7l-1.8,9.1
			c-1.3-0.3-2.3-0.6-3.9-0.6c-2.7,0-6,1.7-7.9,6.6v20.7h-10.6V524.2z"/>
		<path class="st0" d="M331.2,542.1c0-11.6,8.3-18.7,16.9-18.7c10.2,0,15.2,7.4,15.2,17.1c0,1.9-0.2,3.8-0.4,4.7h-21.4
			c1,5.2,4.5,7.6,9.3,7.6c2.7,0,5.1-0.8,7.7-2.3l3.5,6.4c-3.7,2.5-8.4,4-12.7,4C339,560.8,331.2,553.9,331.2,542.1z M354.2,538.2
			c0-3.9-1.7-6.8-5.9-6.8c-3.3,0-6.2,2.2-7,6.8H354.2z"/>
		<path class="st0" d="M368.8,550c0-7.5,6-11.6,20.1-13.1c-0.2-3.1-1.8-5.2-5.6-5.2c-3,0-6,1.3-9.5,3.2l-3.8-6.9
			c4.5-2.8,9.6-4.7,15.3-4.7c9.1,0,14.2,5.2,14.2,16.2v20.4h-8.6l-0.8-3.7h-0.3c-3,2.6-6.4,4.5-10.4,4.5
			C373,560.8,368.8,556.1,368.8,550z M389,549.6v-6.2c-7.5,1-10,3.2-10,5.9c0,2.3,1.6,3.4,4.1,3.4
			C385.5,552.6,387.1,551.4,389,549.6z"/>
		<path class="st0" d="M409.9,547v-14.4H405v-7.9l5.5-0.4l1.2-9.5h8.8v9.5h8.6v8.3h-8.6v14.3c0,4,1.8,5.7,4.6,5.7
			c1.2,0,2.5-0.3,3.4-0.7l1.7,7.7c-1.9,0.6-4.5,1.3-7.9,1.3C413.4,560.8,409.9,555.2,409.9,547z"/>
		<path class="st0" d="M433.9,542.1c0-11.6,8.3-18.7,16.9-18.7c10.2,0,15.2,7.4,15.2,17.1c0,1.9-0.2,3.8-0.4,4.7h-21.4
			c0.9,5.2,4.5,7.6,9.3,7.6c2.7,0,5.1-0.8,7.7-2.3l3.5,6.4c-3.7,2.5-8.4,4-12.7,4C441.8,560.8,433.9,553.9,433.9,542.1z M457,538.2
			c0-3.9-1.7-6.8-5.9-6.8c-3.3,0-6.2,2.2-7,6.8H457z"/>
		<path class="st0" d="M487.7,524.2h8.6l0.8,4.5h0.3c3-2.9,6.6-5.4,11.5-5.4c7.8,0,11.1,5.5,11.1,14.4v22.2h-10.6v-20.8
			c0-5.1-1.4-6.7-4.4-6.7c-2.7,0-4.3,1.2-6.6,3.5v24.1h-10.6V524.2z"/>
		<path class="st0" d="M526.8,542.1c0-11.6,8.3-18.7,16.9-18.7c10.2,0,15.2,7.4,15.2,17.1c0,1.9-0.2,3.8-0.4,4.7H537
			c1,5.2,4.5,7.6,9.3,7.6c2.7,0,5.1-0.8,7.7-2.3l3.5,6.4c-3.7,2.5-8.4,4-12.7,4C534.7,560.8,526.8,553.9,526.8,542.1z M549.8,538.2
			c0-3.9-1.7-6.8-5.9-6.8c-3.3,0-6.2,2.2-7,6.8H549.8z"/>
		<path class="st0" d="M563.2,524.2h10.5l3.4,16.5c0.6,3.5,1,7,1.6,10.6h0.3c0.6-3.6,1.3-7.2,2.1-10.6l3.9-16.5h9.2l4,16.5
			c0.9,3.5,1.5,7,2.2,10.6h0.3c0.6-3.6,1-7.1,1.6-10.6l3.4-16.5h9.8l-8.5,35.7h-12.4l-3.3-14.3c-0.7-3.3-1.3-6.6-1.9-10.4h-0.3
			c-0.6,3.8-1.1,7.2-1.8,10.5l-3.1,14.3h-12.1L563.2,524.2z"/>
		<path class="st0" d="M634.3,542.1c0-11.9,8.4-18.7,17.4-18.7s17.4,6.9,17.4,18.7c0,11.9-8.4,18.7-17.4,18.7
			S634.3,553.9,634.3,542.1z M658.3,542.1c0-6.2-2.2-10.2-6.6-10.2s-6.6,4-6.6,10.2s2.2,10.2,6.6,10.2S658.3,548.3,658.3,542.1z"/>
		<path class="st0" d="M676.3,524.2h8.6l0.8,6.2h0.3c2.6-4.8,6.5-7.1,10.1-7.1c2,0,3.2,0.3,4.3,0.7l-1.8,9.1
			c-1.3-0.3-2.3-0.6-3.9-0.6c-2.7,0-6,1.7-7.9,6.6v20.7h-10.6V524.2z"/>
		<path class="st0" d="M717.3,542.1c0-11.9,8.7-18.7,18.6-18.7c4.4,0,7.8,1.6,10.4,3.8l-5,6.8c-1.7-1.4-3.1-2.1-4.8-2.1
			c-5.1,0-8.4,4-8.4,10.2s3.4,10.2,8,10.2c2.3,0,4.6-1.2,6.4-2.6l4.1,6.9c-3.5,3.1-7.9,4.3-11.8,4.3
			C725,560.8,717.3,553.9,717.3,542.1z"/>
		<path class="st0" d="M753.1,548.8v-39.3h10.6v39.8c0,2.3,1.1,3,1.9,3c0.4,0,0.7,0,1.3-0.1l1.3,7.8c-1.2,0.5-2.9,0.9-5.3,0.9
			C755.6,560.8,753.1,556.1,753.1,548.8z"/>
		<path class="st0" d="M772.8,513.5c0-3.2,2.6-5.5,6.1-5.5c3.6,0,6.1,2.3,6.1,5.5c0,3.2-2.6,5.5-6.1,5.5
			C775.4,519,772.8,516.7,772.8,513.5z M773.7,524.2h10.6v35.7h-10.6V524.2z"/>
		<path class="st0" d="M791.5,542.1c0-11.9,8.7-18.7,18.6-18.7c4.4,0,7.8,1.6,10.4,3.8l-5,6.8c-1.7-1.4-3.1-2.1-4.8-2.1
			c-5.1,0-8.4,4-8.4,10.2s3.4,10.2,8,10.2c2.3,0,4.6-1.2,6.4-2.6l4.1,6.9c-3.5,3.1-7.9,4.3-11.8,4.3
			C799.2,560.8,791.5,553.9,791.5,542.1z"/>
		<path class="st0" d="M827.2,509.5h10.3v28.9h0.3l11.3-14.2h11.5l-12.5,14.7l13.5,21h-11.5l-8-13.9l-4.5,5.1v8.8h-10.3V509.5z"/>
		<path class="st0" d="M879,542.1c0-11.9,8.4-18.7,17.4-18.7s17.4,6.9,17.4,18.7c0,11.9-8.4,18.7-17.4,18.7S879,553.9,879,542.1z
			 M902.9,542.1c0-6.2-2.2-10.2-6.6-10.2s-6.6,4-6.6,10.2s2.2,10.2,6.6,10.2S902.9,548.3,902.9,542.1z"/>
		<path class="st0" d="M921,524.2h8.6l0.8,4.5h0.3c3-2.9,6.6-5.4,11.5-5.4c7.8,0,11.1,5.5,11.1,14.4v22.2h-10.6v-20.8
			c0-5.1-1.4-6.7-4.4-6.7c-2.7,0-4.3,1.2-6.6,3.5v24.1H921V524.2z"/>
		<path class="st0" d="M975.8,513.5c0-3.2,2.6-5.5,6.1-5.5c3.6,0,6.1,2.3,6.1,5.5c0,3.2-2.6,5.5-6.1,5.5
			C978.4,519,975.8,516.7,975.8,513.5z M976.6,524.2h10.6v35.7h-10.6V524.2z"/>
		<path class="st0" d="M997.9,547v-14.4h-4.9v-7.9l5.5-0.4l1.2-9.5h8.8v9.5h8.6v8.3h-8.6v14.3c0,4,1.8,5.7,4.6,5.7
			c1.2,0,2.5-0.3,3.4-0.7l1.7,7.7c-1.9,0.6-4.5,1.3-7.9,1.3C1001.4,560.8,997.9,555.2,997.9,547z"/>
		<path class="st0" d="M1022,542.1c0-11.6,8.3-18.7,16.9-18.7c10.2,0,15.2,7.4,15.2,17.1c0,1.9-0.2,3.8-0.4,4.7h-21.4
			c1,5.2,4.5,7.6,9.3,7.6c2.7,0,5.1-0.8,7.7-2.3l3.5,6.4c-3.7,2.5-8.4,4-12.7,4C1029.9,560.8,1022,553.9,1022,542.1z M1045,538.2
			c0-3.9-1.7-6.8-5.9-6.8c-3.3,0-6.2,2.2-7,6.8H1045z"/>
		<path class="st0" d="M1061.3,524.2h8.6l0.8,4.6h0.3c2.9-2.9,6.1-5.4,10.8-5.4c5,0,8.1,2.2,9.9,6c3.1-3.3,6.5-6,11.2-6
			c7.7,0,11.2,5.5,11.2,14.4v22.2h-10.6v-20.8c0-5.1-1.4-6.7-4.4-6.7c-1.8,0-3.8,1.1-6.1,3.5v24.1h-10.6v-20.8
			c0-5.1-1.4-6.7-4.4-6.7c-1.8,0-3.8,1.1-6.1,3.5v24.1h-10.6V524.2z"/>
		<path class="st0" d="M119.8,599.9c0-3.2,2.6-5.5,6.1-5.5c3.6,0,6.1,2.3,6.1,5.5c0,3.2-2.6,5.5-6.1,5.5
			C122.4,605.4,119.8,603.1,119.8,599.9z M120.7,610.6h10.6v35.7h-10.6V610.6z"/>
		<path class="st0" d="M140.6,610.6h8.6l0.8,4.5h0.3c3-2.9,6.6-5.4,11.5-5.4c7.8,0,11.1,5.5,11.1,14.4v22.2h-10.6v-20.8
			c0-5.1-1.4-6.7-4.4-6.7c-2.7,0-4.3,1.2-6.6,3.5v24.1h-10.6V610.6z"/>
		<path class="st0" d="M196.2,635.2v-39.3h10.6v39.8c0,2.3,1.1,3,1.9,3c0.4,0,0.7,0,1.3-0.1l1.3,7.8c-1.2,0.5-2.9,0.9-5.3,0.9
			C198.6,647.2,196.2,642.5,196.2,635.2z"/>
		<path class="st0" d="M215.9,599.9c0-3.2,2.6-5.5,6.1-5.5c3.6,0,6.1,2.3,6.1,5.5c0,3.2-2.6,5.5-6.1,5.5
			C218.5,605.4,215.9,603.1,215.9,599.9z M216.8,610.6h10.6v35.7h-10.6V610.6z"/>
		<path class="st0" d="M233.5,642.2l4.8-6.6c3.2,2.4,6.2,3.8,9.2,3.8c3.1,0,4.5-1.2,4.5-3.1c0-2.4-3.5-3.4-7.2-4.9
			c-4.4-1.7-9.5-4.6-9.5-10.5c0-6.7,5.4-11.2,13.6-11.2c5.5,0,9.5,2.2,12.6,4.5l-4.7,6.4c-2.5-1.8-5-3-7.5-3c-2.7,0-4.1,1.1-4.1,2.9
			c0,2.3,3.3,3.2,7,4.5c4.5,1.7,9.6,4.2,9.6,10.8c0,6.5-5.1,11.5-14.7,11.5C242.5,647.2,237.1,645.2,233.5,642.2z"/>
		<path class="st0" d="M270,633.4v-14.4h-4.9V611l5.5-0.4l1.2-9.5h8.8v9.5h8.6v8.3h-8.6v14.3c0,4,1.8,5.7,4.6,5.7
			c1.2,0,2.5-0.3,3.4-0.7l1.7,7.7c-1.9,0.6-4.5,1.3-7.9,1.3C273.5,647.2,270,641.6,270,633.4z"/>
		<path class="st0" d="M311.9,633.4v-14.4H307V611l5.5-0.4l1.2-9.5h8.8v9.5h8.6v8.3h-8.6v14.3c0,4,1.8,5.7,4.6,5.7
			c1.2,0,2.5-0.3,3.4-0.7l1.7,7.7c-1.9,0.6-4.5,1.3-7.9,1.3C315.4,647.2,311.9,641.6,311.9,633.4z"/>
		<path class="st0" d="M336,628.5c0-11.9,8.4-18.7,17.4-18.7s17.4,6.9,17.4,18.7c0,11.9-8.4,18.7-17.4,18.7S336,640.3,336,628.5z
			 M359.9,628.5c0-6.2-2.2-10.2-6.6-10.2s-6.6,4-6.6,10.2s2.2,10.2,6.6,10.2S359.9,634.7,359.9,628.5z"/>
		<path class="st0" d="M390.3,628.5c0-11.6,8.3-18.7,16.9-18.7c10.2,0,15.2,7.4,15.2,17.1c0,1.9-0.2,3.8-0.4,4.7h-21.4
			c0.9,5.2,4.5,7.6,9.3,7.6c2.7,0,5.1-0.8,7.7-2.3l3.5,6.4c-3.7,2.5-8.4,4-12.7,4C398.2,647.2,390.3,640.3,390.3,628.5z
			 M413.4,624.6c0-3.9-1.7-6.8-5.9-6.8c-3.3,0-6.2,2.2-7,6.8H413.4z"/>
		<path class="st0" d="M427.8,628.5c0-11.7,7.3-18.7,14.8-18.7c3.9,0,6.3,1.5,8.8,3.7l-0.4-5.4v-12.2h10.6v50.4H453l-0.8-3.5H452
			c-2.5,2.5-6.1,4.4-9.5,4.4C433.6,647.2,427.8,640.2,427.8,628.5z M451,635.3v-14.7c-1.9-1.7-4-2.3-5.9-2.3c-3.4,0-6.4,3.2-6.4,10
			c0,7,2.4,10.2,6.5,10.2C447.5,638.5,449.3,637.7,451,635.3z"/>
		<path class="st0" d="M470.1,599.9c0-3.2,2.6-5.5,6.1-5.5c3.6,0,6.1,2.3,6.1,5.5c0,3.2-2.6,5.5-6.1,5.5
			C472.7,605.4,470.1,603.1,470.1,599.9z M470.9,610.6h10.6v35.7h-10.6V610.6z"/>
		<path class="st0" d="M492.3,633.4v-14.4h-4.9V611l5.5-0.4l1.2-9.5h8.8v9.5h8.6v8.3h-8.6v14.3c0,4,1.8,5.7,4.6,5.7
			c1.2,0,2.5-0.3,3.4-0.7l1.7,7.7c-1.9,0.6-4.5,1.3-7.9,1.3C495.8,647.2,492.3,641.6,492.3,633.4z"/>
		<path class="st0" d="M530.7,628.5c0-11.9,8.7-18.7,18.6-18.7c4.4,0,7.8,1.6,10.4,3.8l-5,6.8c-1.7-1.4-3.1-2.1-4.8-2.1
			c-5.1,0-8.4,4-8.4,10.2s3.4,10.2,8,10.2c2.3,0,4.6-1.2,6.4-2.6l4.1,6.9c-3.5,3.1-7.9,4.3-11.8,4.3
			C538.4,647.2,530.7,640.3,530.7,628.5z"/>
		<path class="st0" d="M564.4,628.5c0-11.9,8.4-18.7,17.4-18.7c9,0,17.4,6.9,17.4,18.7c0,11.9-8.4,18.7-17.4,18.7
			C572.7,647.2,564.4,640.3,564.4,628.5z M588.3,628.5c0-6.2-2.2-10.2-6.6-10.2c-4.4,0-6.6,4-6.6,10.2s2.2,10.2,6.6,10.2
			C586.1,638.7,588.3,634.7,588.3,628.5z"/>
		<path class="st0" d="M606.4,610.6h8.6l0.8,4.6h0.3c2.9-2.9,6.1-5.4,10.8-5.4c5,0,8.1,2.2,9.9,6c3.1-3.3,6.5-6,11.2-6
			c7.7,0,11.2,5.5,11.2,14.4v22.2h-10.6v-20.8c0-5.1-1.4-6.7-4.4-6.7c-1.8,0-3.8,1.1-6.1,3.5v24.1h-10.6v-20.8
			c0-5.1-1.4-6.7-4.4-6.7c-1.8,0-3.8,1.1-6.1,3.5v24.1h-10.6V610.6z"/>
		<path class="st0" d="M668.1,610.6h8.6l0.8,3.5h0.3c2.8-2.5,6.4-4.4,10.2-4.4c8.6,0,13.9,7.1,13.9,18.2c0,12.3-7.3,19.3-15,19.3
			c-3.1,0-6-1.3-8.5-3.7l0.4,5.7v10.5h-10.6V610.6z M691,628c0-6.4-2-9.6-6.2-9.6c-2.2,0-4,1-6.1,3.2v14.7c1.9,1.7,3.9,2.3,5.7,2.3
			C688.1,638.5,691,635.4,691,628z"/>
		<path class="st0" d="M707.7,636.4c0-7.5,6-11.6,20.1-13.1c-0.2-3.1-1.8-5.2-5.6-5.2c-3,0-6,1.3-9.5,3.2l-3.8-6.9
			c4.5-2.8,9.6-4.7,15.3-4.7c9.1,0,14.2,5.2,14.2,16.2v20.4h-8.6l-0.8-3.7h-0.3c-3,2.6-6.4,4.5-10.4,4.5
			C711.9,647.2,707.7,642.5,707.7,636.4z M727.8,636v-6.2c-7.5,1-10,3.2-10,5.9c0,2.3,1.6,3.4,4.1,3.4
			C724.4,639,726,637.8,727.8,636z"/>
		<path class="st0" d="M747.3,610.6h8.6l0.8,4.5h0.3c3-2.9,6.6-5.4,11.5-5.4c7.8,0,11.1,5.5,11.1,14.4v22.2H769v-20.8
			c0-5.1-1.4-6.7-4.4-6.7c-2.7,0-4.3,1.2-6.6,3.5v24.1h-10.6V610.6z"/>
		<path class="st0" d="M787.4,659.6l1.9-8.1c0.7,0.2,1.6,0.5,2.4,0.5c3.5,0,5.3-1.9,6.3-4.7l0.5-1.9l-13.8-34.8h10.6l5.1,15.4
			c1,3.2,1.9,6.6,2.8,10.1h0.3c0.8-3.4,1.6-6.8,2.5-10.1l4.3-15.4h10.1l-12.4,36.1c-3.4,8.9-7.2,13.6-15.6,13.6
			C790.3,660.3,788.9,660,787.4,659.6z"/>
		<path class="st0" d="M840.4,610.6h8.6l0.8,3.5h0.3c2.8-2.5,6.4-4.4,10.2-4.4c8.6,0,13.9,7.1,13.9,18.2c0,12.3-7.3,19.3-15,19.3
			c-3.1,0-6-1.3-8.5-3.7l0.4,5.7v10.5h-10.6V610.6z M863.4,628c0-6.4-2-9.6-6.2-9.6c-2.2,0-4,1-6.1,3.2v14.7
			c1.9,1.7,3.9,2.3,5.7,2.3C860.4,638.5,863.4,635.4,863.4,628z"/>
		<path class="st0" d="M881.7,610.6h8.6l0.8,6.2h0.3c2.6-4.8,6.5-7.1,10.1-7.1c2,0,3.2,0.3,4.3,0.7l-1.8,9.1
			c-1.3-0.3-2.3-0.6-3.9-0.6c-2.7,0-6,1.7-7.9,6.6v20.7h-10.6V610.6z"/>
		<path class="st0" d="M908.3,628.5c0-11.9,8.4-18.7,17.4-18.7s17.4,6.9,17.4,18.7c0,11.9-8.4,18.7-17.4,18.7
			S908.3,640.3,908.3,628.5z M932.3,628.5c0-6.2-2.2-10.2-6.6-10.2s-6.6,4-6.6,10.2s2.2,10.2,6.6,10.2S932.3,634.7,932.3,628.5z"/>
		<path class="st0" d="M947.4,611l5.3-0.4h16.4v8.3h-21.8V611z M952.2,608.8c0-7.5,3.5-13.7,13.1-13.7c3,0,5.5,0.7,7.1,1.3l-1.9,7.8
			c-1.2-0.5-2.5-0.8-3.7-0.8c-2.6,0-4.1,1.4-4.1,5.1v37.9h-10.6V608.8z"/>
		<path class="st0" d="M974.1,599.9c0-3.2,2.6-5.5,6.1-5.5c3.6,0,6.1,2.3,6.1,5.5c0,3.2-2.6,5.5-6.1,5.5
			C976.6,605.4,974.1,603.1,974.1,599.9z M974.9,610.6h10.6v35.7h-10.6V610.6z"/>
		<path class="st0" d="M994.8,635.2v-39.3h10.6v39.8c0,2.3,1.1,3,1.9,3c0.4,0,0.7,0,1.3-0.1l1.3,7.8c-1.2,0.5-2.9,0.9-5.3,0.9
			C997.3,647.2,994.8,642.5,994.8,635.2z"/>
		<path class="st0" d="M1013.3,628.5c0-11.6,8.3-18.7,16.9-18.7c10.2,0,15.2,7.4,15.2,17.1c0,1.9-0.2,3.8-0.4,4.7h-21.4
			c0.9,5.2,4.5,7.6,9.3,7.6c2.7,0,5.1-0.8,7.7-2.3l3.5,6.4c-3.7,2.5-8.4,4-12.7,4C1021.2,647.2,1013.3,640.3,1013.3,628.5z
			 M1036.3,624.6c0-3.9-1.7-6.8-5.9-6.8c-3.3,0-6.2,2.2-7,6.8H1036.3z"/>
	</g>
</g>
<polygon class="st1" points="606.1,184.6 557.9,184.6 557.9,257.5 485,257.5 485,305.6 557.9,305.6 557.9,378.6 606.1,378.6 
	606.1,305.6 679,305.6 679,257.5 606.1,257.5 "/>
<circle class="st2" cx="582" cy="281.6" r="154.7"/>
</svg>
